<?xml version="1.0" encoding="utf-8"?>
<!-- Generator: Adobe Illustrator 25.1.0, SVG Export Plug-In . SVG Version: 6.00 Build 0)  -->
<svg version="1.1" id="SD.svg" xmlns="http://www.w3.org/2000/svg" xmlns:xlink="http://www.w3.org/1999/xlink" x="0px" y="0px"
	 viewBox="0 0 54.6 92.4" style="enable-background:new 0 0 54.6 92.4;" xml:space="preserve">
<style type="text/css">
	.st0{fill:none;stroke:#FFFFFF;stroke-width:2;stroke-linecap:round;}
	.st1{fill:none;stroke:#FFFFFF;stroke-width:2;}
</style>
<path id="長方形_16_1_" class="st0" d="M27.1,30.8l0.1-29"/>
<path id="長方形_16-2" class="st1" d="M21.2,8l6.1-6.1l5.9,6.2"/>
<path id="シェイプ_5" class="st0" d="M40.4,22c5.4,4,8.6,10.4,8.6,17.1c0,1.8-0.2,3.5-0.7,5.3c-0.6,2.3-0.2,4.8,1.1,6.8
	c2.7,4.2,4.2,9.1,4.2,14.1c0,14.5-11.8,26.3-26.3,26.2C12.7,91.5,1,79.8,1,65.3c0-5,1.4-9.9,4.2-14.1c1.3-2,1.7-4.5,1.1-6.8
	c-0.4-1.7-0.7-3.5-0.7-5.3c0-6.7,3.2-13.1,8.6-17.2"/>
</svg>
