<svg width="31" height="53" viewBox="0 0 31 53" fill="none" xmlns="http://www.w3.org/2000/svg">
<path d="M15.3887 18.2083L15.4438 2.21973" stroke="white" stroke-width="2" stroke-linecap="round"/>
<path d="M12.1387 5.36312L15.5018 2L18.7546 5.41825" stroke="white" stroke-width="2"/>
<path d="M22.7224 13.3569C25.6996 15.5622 27.4639 19.0907 27.4639 22.7846C27.4639 23.777 27.3536 24.7143 27.0779 25.7067C26.7471 26.9748 26.9677 28.3531 27.6844 29.4558C29.173 31.7713 30 34.4729 30 37.2295C30 45.2238 23.4943 51.7295 15.5 51.6744C7.45057 51.6744 1 45.2238 1 37.2295C1 34.4729 1.77186 31.7713 3.31559 29.4558C4.03232 28.3531 4.25285 26.9748 3.92205 25.7067C3.70152 24.7694 3.53612 23.777 3.53612 22.7846C3.53612 19.0907 5.30038 15.5622 8.27757 13.3018" stroke="white" stroke-width="2" stroke-linecap="round"/>
</svg>
