<?xml version="1.0" encoding="utf-8"?>
<!-- Generator: Adobe Illustrator 25.1.0, SVG Export Plug-In . SVG Version: 6.00 Build 0)  -->
<svg version="1.1" id="圖層_1" xmlns="http://www.w3.org/2000/svg" xmlns:xlink="http://www.w3.org/1999/xlink" x="0px" y="0px"
	 viewBox="0 0 42.5 42.5" style="enable-background:new 0 0 42.5 42.5;" xml:space="preserve">
<style type="text/css">
	.st0{opacity:0.8;fill:#FFFFFF;enable-background:new    ;}
	.st1{fill:#3165A5;}
</style>
<g>
	<circle class="st0" cx="21.3" cy="21.8" r="14.3"/>
	<path class="st1" d="M21.3,38.3c-9.1,0-16.5-7.4-16.5-16.5S12.2,5.2,21.3,5.2s16.5,7.4,16.5,16.5S30.4,38.3,21.3,38.3z M13.5,32.4
		c2.3,1.7,5,2.6,7.8,2.6s5.5-0.9,7.8-2.6c-1.1-2-3.2-3.3-5.5-3.3H19C16.7,29.1,14.6,30.3,13.5,32.4z M23.6,25.7c3.2,0,6.2,1.6,8,4.3
		c1.9-2.3,2.9-5.3,2.9-8.2c0-7.3-5.9-13.2-13.2-13.2S8.1,14.5,8.1,21.8c0,3,1,5.9,2.9,8.2c1.8-2.7,4.8-4.3,8-4.3H23.6z M21.3,23.9
		c-3.2,0-5.8-2.6-5.8-5.8s2.6-5.8,5.8-5.8s5.8,2.6,5.8,5.8C27,21.4,24.4,23.9,21.3,23.9z M21.3,15.8c-1.3,0-2.4,1.1-2.4,2.4
		s1.1,2.4,2.4,2.4s2.4-1.1,2.4-2.4S22.6,15.8,21.3,15.8z"/>
</g>
</svg>
