<?xml version="1.0" encoding="utf-8"?>
<!-- Generator: Adobe Illustrator 25.1.0, SVG Export Plug-In . SVG Version: 6.00 Build 0)  -->
<svg version="1.1" id="圖層_1" xmlns="http://www.w3.org/2000/svg" xmlns:xlink="http://www.w3.org/1999/xlink" x="0px" y="0px"
	 viewBox="0 0 42.5 42.5" style="enable-background:new 0 0 42.5 42.5;" xml:space="preserve">
<style type="text/css">
	.st0{fill:#3165A5;}
</style>
<path class="st0" d="M35.7,24c0.7-0.7,0.7-1.9,0-2.6L28.4,14c-0.7-0.7-1.9-0.7-2.6,0s-0.7,1.9,0,2.6l4.2,4.2H17.8
	c-1,0-1.8,0.8-1.8,1.8s0.8,1.8,1.8,1.8H30l-4.2,4.2c-0.7,0.7-0.7,1.9,0,2.6s1.9,0.7,2.6,0L35.7,24L35.7,24z M16,13.4
	c1,0,1.8-0.8,1.8-1.8S17,9.7,16,9.7h-3.7c-3.1,0-5.5,2.5-5.5,5.5V30c0,3.1,2.5,5.5,5.5,5.5H16c1,0,1.8-0.8,1.8-1.8S17,31.9,16,31.9
	h-3.7c-1,0-1.8-0.8-1.8-1.8V15.3c0-1,0.8-1.8,1.8-1.8H16V13.4z"/>
</svg>
