<?xml version="1.0" encoding="utf-8"?>
<!-- Generator: Adobe Illustrator 25.1.0, SVG Export Plug-In . SVG Version: 6.00 Build 0)  -->
<svg version="1.1" id="圖層_1" xmlns="http://www.w3.org/2000/svg" xmlns:xlink="http://www.w3.org/1999/xlink" x="0px" y="0px"
	 viewBox="0 0 42.5 42.5" style="enable-background:new 0 0 42.5 42.5;" xml:space="preserve">
<style type="text/css">
	.st0{opacity:0.8;fill:#3165A5;enable-background:new    ;}
	.st1{fill:#FFFFFF;}
</style>
<rect x="9.7" y="13.9" class="st0" width="23.2" height="23.2"/>
<path class="st1" d="M33.5,12.3h-5.2v-1.7c0-1.9-0.7-3.6-2.1-4.9c-1.3-1.4-3-2.1-4.9-2.1s-3.6,0.7-4.9,2.1c-1.4,1.3-2.1,3-2.1,4.9
	v1.8H9.1c-0.5,0-0.9,0.2-1.2,0.5c-0.4,0.3-0.6,0.7-0.6,1.2v19.2c0,1.4,0.6,2.7,1.5,3.7c1,1,2.3,1.5,3.7,1.5H30
	c1.4,0,2.7-0.6,3.7-1.5s1.5-2.3,1.5-3.7V14.1c0-0.5-0.2-0.9-0.5-1.2C34.5,12.5,34,12.3,33.5,12.3z M17.8,10.6c0-0.9,0.4-1.8,1-2.5
	c0.7-0.7,1.5-1,2.5-1s1.8,0.4,2.5,1c0.7,0.7,1,1.5,1,2.5v1.8h-7V10.6z M31.8,33.3c0,0.5-0.2,0.9-0.5,1.2S30.5,35,30.1,35H12.5
	c-0.5,0-0.9-0.2-1.2-0.5s-0.5-0.8-0.5-1.2V15.8h3.5v1.8c0,0.5,0.2,0.9,0.5,1.2c0.3,0.3,0.8,0.5,1.2,0.5s0.9-0.2,1.2-0.5
	c0.3-0.3,0.5-0.8,0.5-1.2v-1.8h7v1.8c0,0.5,0.2,0.9,0.5,1.2c0.3,0.3,0.8,0.5,1.2,0.5s0.9-0.2,1.2-0.5c0.3-0.3,0.7-0.7,0.7-1.2v-1.8
	h3.5C31.8,15.8,31.8,33.3,31.8,33.3z"/>
</svg>
