<svg width="28" height="35" viewBox="0 0 28 35" fill="none" xmlns="http://www.w3.org/2000/svg">
<path d="M26.25 8.75H21V7C21 5.14348 20.2625 3.36301 18.9497 2.05025C17.637 0.737498 15.8565 0 14 0C12.1435 0 10.363 0.737498 9.05025 2.05025C7.7375 3.36301 7 5.14348 7 7V8.75H1.75C1.28587 8.75 0.840752 8.93437 0.512563 9.26256C0.184375 9.59075 0 10.0359 0 10.5V29.75C0 31.1424 0.553124 32.4777 1.53769 33.4623C2.52226 34.4469 3.85761 35 5.25 35H22.75C24.1424 35 25.4777 34.4469 26.4623 33.4623C27.4469 32.4777 28 31.1424 28 29.75V10.5C28 10.0359 27.8156 9.59075 27.4874 9.26256C27.1593 8.93437 26.7141 8.75 26.25 8.75ZM10.5 7C10.5 6.07174 10.8687 5.1815 11.5251 4.52513C12.1815 3.86875 13.0717 3.5 14 3.5C14.9283 3.5 15.8185 3.86875 16.4749 4.52513C17.1313 5.1815 17.5 6.07174 17.5 7V8.75H10.5V7ZM24.5 29.75C24.5 30.2141 24.3156 30.6593 23.9874 30.9874C23.6593 31.3156 23.2141 31.5 22.75 31.5H5.25C4.78587 31.5 4.34075 31.3156 4.01256 30.9874C3.68437 30.6593 3.5 30.2141 3.5 29.75V12.25H7V14C7 14.4641 7.18437 14.9092 7.51256 15.2374C7.84075 15.5656 8.28587 15.75 8.75 15.75C9.21413 15.75 9.65925 15.5656 9.98744 15.2374C10.3156 14.9092 10.5 14.4641 10.5 14V12.25H17.5V14C17.5 14.4641 17.6844 14.9092 18.0126 15.2374C18.3408 15.5656 18.7859 15.75 19.25 15.75C19.7141 15.75 20.1592 15.5656 20.4874 15.2374C20.8156 14.9092 21 14.4641 21 14V12.25H24.5V29.75Z" fill="#3165A5"/>
</svg>
