<svg width="34" height="34" viewBox="0 0 34 34" fill="none" xmlns="http://www.w3.org/2000/svg">
<path d="M16.3028 10.5937C12.4816 10.5937 9.39943 13.5745 9.39943 17.27C9.39943 20.9655 12.4816 23.9463 16.3028 23.9463C20.124 23.9463 23.2062 20.9655 23.2062 17.27C23.2062 13.5745 20.124 10.5937 16.3028 10.5937ZM16.3028 21.6105C13.8335 21.6105 11.8147 19.6639 11.8147 17.27C11.8147 14.876 13.8275 12.9295 16.3028 12.9295C18.7782 12.9295 20.7909 14.876 20.7909 17.27C20.7909 19.6639 18.7722 21.6105 16.3028 21.6105ZM25.0988 10.3206C25.0988 11.1863 24.3778 11.8778 23.4886 11.8778C22.5934 11.8778 21.8784 11.1805 21.8784 10.3206C21.8784 9.46061 22.5994 8.76334 23.4886 8.76334C24.3778 8.76334 25.0988 9.46061 25.0988 10.3206ZM29.671 11.901C29.5689 9.81505 29.0762 7.9673 27.4961 6.44493C25.9219 4.92257 24.0113 4.44611 21.8544 4.34152C19.6314 4.21949 12.9683 4.21949 10.7453 4.34152C8.59433 4.4403 6.68373 4.91676 5.10358 6.43912C3.52342 7.96149 3.03676 9.80924 2.92861 11.8952C2.80244 14.0451 2.80244 20.489 2.92861 22.6389C3.03075 24.7249 3.52342 26.5727 5.10358 28.095C6.68373 29.6174 8.58832 30.0939 10.7453 30.1984C12.9683 30.3205 19.6314 30.3205 21.8544 30.1984C24.0113 30.0997 25.9219 29.6232 27.4961 28.095C29.0702 26.5727 29.5629 24.7249 29.671 22.6389C29.7972 20.489 29.7972 14.0509 29.671 11.901ZM26.7991 24.9457C26.3305 26.0846 25.4233 26.962 24.2396 27.421C22.4672 28.1008 18.2615 27.944 16.3028 27.944C14.3442 27.944 10.1324 28.095 8.36602 27.421C7.18842 26.9678 6.28118 26.0904 5.80653 24.9457C5.10358 23.2316 5.2658 19.1642 5.2658 17.27C5.2658 15.3757 5.10958 11.3026 5.80653 9.59425C6.27517 8.45538 7.18241 7.57799 8.36602 7.11896C10.1384 6.43912 14.3442 6.59601 16.3028 6.59601C18.2615 6.59601 22.4732 6.44493 24.2396 7.11896C25.4172 7.57218 26.3245 8.44957 26.7991 9.59425C27.5021 11.3084 27.3399 15.3757 27.3399 17.27C27.3399 19.1642 27.5021 23.2374 26.7991 24.9457Z" fill="white"/>
</svg>
