<svg xmlns="http://www.w3.org/2000/svg" width="30" height="14" viewBox="0 0 30 14"> <g id="ico_arw03" transform="translate(-1297 -5786)"> <g id="多角形_18" data-name="多角形 18" transform="translate(1327 5786) rotate(90)" fill="none"> <path d="M5.771,1.755a1.5,1.5,0,0,1,2.458,0L12.348,7.64A1.5,1.5,0,0,1,11.119,10H2.881A1.5,1.5,0,0,1,1.652,7.64Z" stroke="none"/> <path d="M 6.999996662139893 3.487584114074707 L 3.841315269470215 8.000000953674316 L 10.15868854522705 8.000000953674316 L 6.999996662139893 3.487584114074707 M 7.000003337860107 1.115691184997559 C 7.465139389038086 1.115691184997559 7.930274486541748 1.328961372375488 8.228849411010742 1.755500793457031 L 12.34785938262939 7.639811038970947 C 13.04377937316895 8.633971214294434 12.33255004882812 10.00000095367432 11.11901950836182 10.00000095367432 L 2.880979537963867 10.00000095367432 C 1.667449951171875 10.00000095367432 0.9562196731567383 8.633971214294434 1.652139663696289 7.639811038970947 L 5.771149635314941 1.755500793457031 C 6.069729328155518 1.328961372375488 6.534866809844971 1.115691184997559 7.000003337860107 1.115691184997559 Z" stroke="none" fill="#5a4a37"/> </g> <line id="線_1173" data-name="線 1173" x1="20" transform="translate(1297 5793)" fill="none" stroke="#5a4a37" stroke-width="2"/> </g></svg>